<svg viewBox="0 -11 512.00135 512" xmlns="http://www.w3.org/2000/svg"><path d="m401.171875 263.84375c11.558594-42.351562-12.722656-86.84375-54.597656-100.027344-9.726563-3.058594-19.574219-4.222656-29.15625-3.703125-17.320313.941407-34.25-4.875-47.617188-15.925781-29.890625-24.71875-72.285156-32.101562-110.257812-15.511719-32.023438 13.992188-53.671875 41.875-60.972657 73.492188-5.71875 24.761719-20.816406 46.265625-42.125 60.113281-25.675781 16.6875-45.257812 42.859375-52.980468 74.984375-16.011719 66.597656 24.996094 133.566406 91.597656 149.578125 30.675781 7.375 61.425781 2.652344 87.242188-11.097656 16.953124-9.03125 36.804687-11.046875 54.992187-4.878906 13.332031 4.519531 27.75 6.546874 42.644531 5.566406 60.304688-3.972656 106.613282-56.425782 102.988282-116.753906-.492188-8.210938-1.867188-16.148438-4.023438-23.730469-4.363281-15.332031-.753906-31.703125 8.796875-44.46875 6.019531-8.039063 10.660156-17.332031 13.46875-27.636719zm0 0" fill="#b7a39a"/><path d="m159.542969 128.679688c-32.023438 13.988281-53.671875 41.871093-60.972657 73.492187-5.71875 24.761719-20.8125 46.261719-42.121093 60.113281-25.679688 16.6875-45.257813 42.855469-52.984375 74.980469-16.011719 66.601563 25 133.570313 91.597656 149.582031 30.222656 7.265625 60.515625 2.792969 86.089844-10.492187-7.132813-11.84375-15.621094-24.117188-25.722656-36.691407-66.207032-82.421874-16.296876-96.589843 0-189.722656 11.261718-64.371094 50.382812-106.699218 73.472656-126.703125-22.28125-5.835937-46.617188-4.496093-69.359375 5.441407zm0 0" fill="#a08e87"/><path d="m398.695312 64.589844c-15 19.371094-42.859374 22.914062-62.230468 7.917968-19.367188-14.996093-22.914063-42.859374-7.914063-62.226562 14.996094-19.371094 41.050781-8.085938 60.421875 6.914062 19.367188 14.996094 24.71875 28.027344 9.722656 47.394532zm0 0" fill="#b7a39a"/><path d="m510.242188 129.882812c8.925781 20.238282-17.925782 40.046876-40.046876 40.046876-22.117187 0-26.851562-17.929688-26.851562-40.046876 0-22.117187 4.734375-40.046874 26.851562-40.046874 22.117188 0 27.011719 10.484374 40.046876 40.046874zm0 0" fill="#b7a39a"/><g fill="#898890"><path d="m181.417969 219.59375c0-32.984375-16.410157-62.121094-41.492188-79.75-21.25 15.292969-35.660156 37.675781-41.351562 62.328125-5.71875 24.761719-20.816407 46.265625-42.125 60.113281-13.21875 8.589844-24.824219 19.691406-34.023438 32.828125 16.78125 13.6875 38.210938 21.917969 61.554688 21.917969 53.8125 0 97.4375-43.625 97.4375-97.4375zm0 0"/><path d="m382.933594 359.683594c-.492188-8.207032-1.867188-16.144532-4.023438-23.730469-4.363281-15.332031-.753906-31.699219 8.796875-44.464844 6.019531-8.039062 10.65625-17.335937 13.46875-27.636719.335938-1.226562.636719-2.457031.910157-3.6875-11.296876-6.894531-24.578126-10.875-38.785157-10.875-41.167969 0-74.542969 33.375-74.542969 74.542969 0 41.171875 33.375 74.546875 74.542969 74.546875 5.316407 0 10.5-.566406 15.5-1.625 3.410157-11.738281 4.90625-24.222656 4.132813-37.070312zm0 0"/><path d="m181.417969 415.273438c-36.0625 0-65.296875 29.234374-65.296875 65.300781 0 3.230469.242187 6.414062.695312 9.519531 23.21875 1.382812 45.792969-3.851562 65.492188-14.34375 16.953125-9.03125 36.804687-11.046875 54.996094-4.878906 2.957031 1.003906 5.972656 1.878906 9.027343 2.632812-3.53125-32.734375-31.242187-58.230468-64.914062-58.230468zm0 0"/><path d="m239.5625 331.140625c0 14.414063-11.6875 26.101563-26.097656 26.101563-14.414063 0-26.101563-11.6875-26.101563-26.101563s11.6875-26.097656 26.101563-26.097656c14.410156 0 26.097656 11.683593 26.097656 26.097656zm0 0"/></g><path d="m155.429688 439.660156c-3.773438-4.695312-7.164063-9.160156-10.210938-13.441406-17.550781 11.707031-29.101562 31.675781-29.101562 54.355469 0 3.230469.246093 6.414062.699218 9.519531 22.769532 1.359375 44.910156-3.648438 64.335938-13.734375-7.132813-11.84375-15.625-24.121094-25.722656-36.699219zm0 0" fill="#75747a"/><path d="m142.933594 297.179688c4.710937-13.40625 9.261718-28.769532 12.496094-47.242188 4.0625-23.238281 11.769531-43.613281 21.03125-61.089844-6.652344-20.003906-19.625-37.117187-36.535157-49.003906-21.25 15.296875-35.660156 37.675781-41.355469 62.332031-5.714843 24.761719-20.8125 46.261719-42.121093 60.109375-13.21875 8.59375-24.824219 19.691406-34.023438 32.828125 16.777344 13.691407 38.207031 21.917969 61.554688 21.917969 22.160156 0 42.585937-7.394531 58.953125-19.851562zm0 0" fill="#75747a"/></svg>