<?xml version="1.0" encoding="iso-8859-1"?>
<!-- Generator: Adobe Illustrator 19.0.0, SVG Export Plug-In . SVG Version: 6.00 Build 0)  -->
<svg version="1.1" id="Layer_1" xmlns="http://www.w3.org/2000/svg" xmlns:xlink="http://www.w3.org/1999/xlink" x="0px" y="0px"
	 viewBox="0 0 503.607 503.607" style="enable-background:new 0 0 503.607 503.607;" xml:space="preserve">
<g transform="translate(1 1)">
	<g>
		<path style="fill:#FCC309;" d="M162.817,494.213h-58.754c-6.715,0-12.59-5.036-12.59-11.751v-9.233
			c0-6.715,5.875-12.59,12.59-12.59h59.593c6.715,0,12.59,5.875,12.59,12.59v9.233C175.407,489.177,169.532,494.213,162.817,494.213
			"/>
		<path style="fill:#FCC309;" d="M136.797,43.485L133.44,7.393l-3.357,36.092c-3.357,31.895-5.036,65.469-5.036,98.203v50.361
			h16.787v-50.361C141.833,108.954,140.155,75.38,136.797,43.485"/>
	</g>
	<path style="fill:#FFFFFF;" d="M108.26,141.689v50.361h16.787v-50.361c0-33.574,1.679-66.308,5.036-98.203l3.357-36.092
		l-10.911,36.092C113.296,75.38,108.26,108.954,108.26,141.689"/>
	<path style="fill:#FD9808;" d="M144.351,43.485L133.44,7.393l3.357,36.092c3.357,31.895,5.036,65.469,5.036,98.203v50.361h16.787
		v-50.361C158.62,108.954,153.584,75.38,144.351,43.485"/>
	<path style="fill:#FFDD09;" d="M148.548,192.049h-30.216l-10.072,33.574v201.443l4.197,26.02c0,5.036,2.518,7.554,5.875,7.554
		h31.056c2.518,0,5.036-3.357,5.875-7.554l3.357-26.02V225.623L148.548,192.049z"/>
	<path style="fill:#FFFFFF;" d="M112.456,453.085l-4.197-26.02V225.623l10.072-33.574H108.26l-16.787,33.574v201.443l6.715,26.02
		c0.839,5.036,5.036,7.554,9.233,7.554h10.072C114.974,460.639,112.456,458.121,112.456,453.085"/>
	<path style="fill:#FD9808;" d="M158.62,192.049h-10.072l10.072,33.574v201.443l-4.197,26.02c0,5.036-2.518,7.554-5.875,7.554
		h10.072c4.197,0,8.393-3.357,10.072-7.554l6.715-26.02V225.623L158.62,192.049z"/>
	<g>
		<path style="fill:#FCC309;" d="M280.325,494.213h-59.593c-6.715,0-12.59-5.875-12.59-12.59v-9.233
			c0-6.715,5.875-12.59,12.59-12.59h59.593c6.715,0,12.59,5.875,12.59,12.59v9.233C292.915,489.177,287.04,494.213,280.325,494.213"
			/>
		<path style="fill:#FCC309;" d="M254.306,85.452l-3.357-36.092l-3.357,36.092c-3.357,31.895-5.036,65.469-5.036,98.203v50.361
			h16.787v-50.361C259.342,150.921,257.663,117.348,254.306,85.452"/>
	</g>
	<path style="fill:#FFFFFF;" d="M225.768,183.656v50.361h16.787v-50.361c0-33.574,1.679-66.308,5.036-98.203l3.357-36.092
		l-10.911,36.092C230.804,117.348,225.768,150.921,225.768,183.656"/>
	<path style="fill:#FD9808;" d="M261.86,85.452l-10.911-36.092l3.357,36.092c3.357,31.895,5.036,65.469,5.036,98.203v50.361h16.787
		v-50.361C276.129,150.921,271.092,117.348,261.86,85.452"/>
	<path style="fill:#FFDD09;" d="M266.056,234.016H235.84l-10.072,33.574v159.475l4.197,26.02c0.839,4.197,3.357,7.554,5.875,7.554
		h31.056c2.518,0,5.036-3.357,5.875-7.554l3.357-26.02V267.59L266.056,234.016z"/>
	<path style="fill:#FFFFFF;" d="M229.965,453.085l-4.197-26.02V267.59l10.072-33.574h-10.072l-16.787,33.574v159.475l6.715,26.02
		c0.839,4.197,5.036,7.554,10.072,7.554h10.072C232.483,460.639,229.965,458.121,229.965,453.085"/>
	<path style="fill:#FD9808;" d="M276.129,234.016h-10.072l10.072,33.574v159.475l-4.197,26.02c-0.839,4.197-3.357,7.554-5.875,7.554
		h10.072c4.197,0,8.393-3.357,10.072-7.554l6.715-26.02V267.59L276.129,234.016z"/>
	<g>
		<path style="fill:#FCC309;" d="M397.833,494.213H338.24c-6.715,0-12.59-5.875-12.59-12.59v-9.233c0-6.715,5.875-12.59,12.59-12.59
			h59.593c6.715,0,12.59,5.875,12.59,12.59v9.233C410.424,489.177,404.548,494.213,397.833,494.213"/>
		<path style="fill:#FCC309;" d="M371.814,119.026l-3.357-36.092l-3.357,36.092c-3.357,31.895-5.036,65.469-5.036,98.203v50.361
			h16.787v-50.361C376.85,184.495,375.171,150.921,371.814,119.026"/>
	</g>
	<path style="fill:#FFFFFF;" d="M343.276,217.229v50.361h16.787v-50.361c0-33.574,1.679-66.308,5.036-98.203l3.357-36.092
		l-10.911,36.092C348.312,150.921,343.276,184.495,343.276,217.229"/>
	<path style="fill:#FD9808;" d="M379.368,119.026l-10.911-36.092l3.357,36.092c3.357,31.895,5.036,65.469,5.036,98.203v50.361
		h16.787v-50.361C393.637,184.495,388.601,150.921,379.368,119.026"/>
	<path style="fill:#FFDD09;" d="M383.565,267.59h-30.216l-10.072,33.574v125.902l4.197,26.02c0.839,4.197,3.357,7.554,5.875,7.554
		h31.056c2.518,0,5.036-3.357,5.875-7.554l3.357-26.02V301.164L383.565,267.59z"/>
	<path style="fill:#FFFFFF;" d="M347.473,453.085l-4.197-26.02V301.164l10.072-33.574h-10.072l-16.787,33.574v125.902l6.715,26.02
		c0.839,4.197,5.036,7.554,10.072,7.554h10.072C349.991,460.639,347.473,458.121,347.473,453.085"/>
	<path style="fill:#FD9808;" d="M393.637,267.59h-10.072l10.072,33.574v125.902l-4.197,26.02c-0.839,4.197-3.357,7.554-5.875,7.554
		h10.072c4.197,0,8.393-3.357,10.072-7.554l6.715-26.02V301.164L393.637,267.59z"/>
	<path d="M292.915,435.459h-83.934c-5.036,0-8.393-3.357-8.393-8.393V259.197c0-5.036,3.357-8.393,8.393-8.393h83.934
		c5.036,0,8.393,3.357,8.393,8.393v167.869C301.309,432.102,297.951,435.459,292.915,435.459z M217.374,418.672h67.148V267.59
		h-67.148V418.672z"/>
	<path d="M276.968,469.033h-51.2c-8.393,0-15.948-5.875-17.626-14.269l-7.554-25.18c-0.839-2.518,0-5.036,1.679-7.554
		c1.679-1.679,4.197-3.357,6.715-3.357h83.934c2.518,0,5.036,0.839,6.715,3.357c1.679,2.518,1.679,5.036,1.679,7.554l-6.715,26.02
		C292.915,463.997,285.361,469.033,276.968,469.033z M219.892,435.459l4.197,15.948c0,0.839,0.839,0.839,1.679,0.839h51.2
		c0.839,0,1.679-0.839,1.679-0.839l4.197-15.948H219.892z"/>
	<path d="M280.325,502.607h-59.593c-11.751,0-20.984-9.233-20.984-20.984v-9.233c0-11.751,9.233-20.984,20.984-20.984h59.593
		c11.751,0,20.984,9.233,20.984,20.984v9.233C301.309,493.374,292.076,502.607,280.325,502.607z M221.571,469.033
		c-2.518,0-4.197,1.679-4.197,4.197v9.233c0,2.518,1.679,4.197,4.197,4.197h59.593c2.518,0,4.197-1.679,4.197-4.197v-9.233
		c0-2.518-1.679-4.197-4.197-4.197H221.571z"/>
	<path d="M292.915,267.59h-83.934c-2.518,0-5.875-1.679-7.554-4.197c-1.679-2.518-1.679-5.875,0-8.393l16.787-33.574
		c1.679-2.518,4.197-5.036,7.554-5.036h50.361c3.357,0,5.875,1.679,7.554,5.036L300.469,255c1.679,2.518,0.839,5.875,0,8.393
		S295.433,267.59,292.915,267.59z M222.41,250.803h57.075l-8.393-16.787h-40.289L222.41,250.803z"/>
	<path d="M276.129,234.016h-50.361c-5.036,0-8.393-3.357-8.393-8.393v-50.361c0-5.036,3.357-8.393,8.393-8.393h50.361
		c5.036,0,8.393,3.357,8.393,8.393v50.361C284.522,230.659,281.165,234.016,276.129,234.016z M234.161,217.229h33.574v-33.574
		h-33.574V217.229z"/>
	<path d="M276.129,183.656h-50.361c-5.036,0-8.393-3.357-8.393-8.393c0-34.413,5.036-67.987,15.108-100.721l10.072-36.092
		c1.679-3.357,5.036-5.875,8.393-5.875c3.357,0,6.715,2.518,8.393,5.875l10.072,36.092c10.072,32.734,15.108,67.148,15.108,100.721
		C284.522,180.298,281.165,183.656,276.129,183.656z M234.161,166.869h33.574c-0.839-29.377-5.036-59.593-14.269-88.131
		l-2.518-8.393l-2.518,9.233C240.037,108.115,235.001,137.492,234.161,166.869z"/>
	<path d="M175.407,435.459H91.473c-5.036,0-8.393-3.357-8.393-8.393V225.623c0-5.036,3.357-8.393,8.393-8.393h83.934
		c5.036,0,8.393,3.357,8.393,8.393v201.443C183.801,432.102,180.443,435.459,175.407,435.459z M99.866,418.672h67.148V234.016
		H99.866V418.672z"/>
	<path d="M159.46,469.033H107.42c-8.393,0-15.948-5.875-17.626-14.269l-6.715-25.18c0-2.518,0-5.036,1.679-7.554
		c1.679-1.679,4.197-3.357,6.715-3.357h83.934c2.518,0,5.036,0.839,6.715,3.357c1.679,2.518,1.679,5.036,1.679,7.554l-6.715,26.02
		C175.407,463.997,167.853,469.033,159.46,469.033z M102.384,435.459l4.197,15.948c0,0.839,0,0.839,0.839,0.839h51.2
		c0.839,0,1.679-0.839,1.679-0.839l4.197-15.948H102.384z"/>
	<path d="M162.817,502.607h-58.754c-11.751,0-20.984-9.233-20.984-20.144v-9.233c0-11.751,9.233-20.984,20.984-20.984h59.593
		c11.751,0,20.984,9.233,20.984,20.984v9.233C183.801,493.374,174.568,502.607,162.817,502.607z M104.063,469.033
		c-2.518,0-4.197,1.679-4.197,4.197v9.233c0,1.679,1.679,3.357,4.197,3.357h59.593c1.679,0,3.357-1.679,3.357-3.357v-9.233
		c0-2.518-1.679-4.197-4.197-4.197H104.063z"/>
	<path d="M175.407,234.016H91.473c-2.518,0-5.875-1.679-7.554-4.197c-1.679-2.518-1.679-5.875,0-8.393l16.787-33.574
		c1.679-2.518,4.197-4.197,7.554-4.197h50.361c3.357,0,5.875,1.679,7.554,5.036l16.787,33.574c1.679,2.518,0.839,5.875,0,8.393
		C181.283,233.177,177.925,234.016,175.407,234.016z M104.902,217.229h57.075l-8.393-16.787h-40.289L104.902,217.229z"/>
	<path d="M158.62,200.443H108.26c-5.036,0-8.393-3.357-8.393-8.393v-50.361c0-5.036,3.357-8.393,8.393-8.393h50.361
		c5.036,0,8.393,3.357,8.393,8.393v50.361C167.014,197.085,163.656,200.443,158.62,200.443z M116.653,183.656h33.574v-33.574
		h-33.574V183.656z"/>
	<path d="M158.62,150.082H108.26c-5.036,0-8.393-3.357-8.393-8.393c0-33.574,5.036-67.987,15.108-100.721l10.072-36.092
		C126.725,1.518,130.083-1,133.44-1s6.715,2.518,8.393,5.875l10.072,36.092c10.072,32.734,15.108,67.148,15.108,100.721
		C167.014,146.725,163.656,150.082,158.62,150.082z M116.653,133.295h33.574c-0.839-29.377-5.875-58.754-14.269-87.292l-2.518-9.233
		l-2.518,9.233C122.529,74.541,117.492,103.918,116.653,133.295z"/>
	<path d="M410.424,435.459h-83.934c-5.036,0-8.393-3.357-8.393-8.393V292.77c0-5.036,3.357-8.393,8.393-8.393h83.934
		c5.036,0,8.393,3.357,8.393,8.393v134.295C418.817,432.102,415.46,435.459,410.424,435.459z M334.883,418.672h67.148V301.164
		h-67.148V418.672z"/>
	<path d="M394.476,469.033h-51.2c-8.393,0-15.948-5.875-17.626-14.269l-7.554-25.18c-0.839-2.518,0-5.036,1.679-7.554
		c1.679-2.518,4.197-3.357,6.715-3.357h83.934c2.518,0,5.036,0.839,6.715,3.357c1.679,2.518,1.679,5.036,1.679,7.554l-6.715,26.02
		C410.424,463.997,402.869,469.033,394.476,469.033z M337.401,435.459l4.197,15.948c0,0.839,0.839,0.839,1.679,0.839h51.2
		c0.839,0,1.679-0.839,1.679-0.839l4.197-15.948H337.401z"/>
	<path d="M397.833,502.607H338.24c-11.751,0-20.984-9.233-20.984-20.984v-9.233c0-11.751,9.233-20.984,20.984-20.984h59.593
		c11.751,0,20.984,9.233,20.984,20.984v9.233C418.817,493.374,409.584,502.607,397.833,502.607z M339.079,469.033
		c-2.518,0-4.197,1.679-4.197,4.197v9.233c0,2.518,1.679,4.197,4.197,4.197h59.593c2.518,0,4.197-1.679,4.197-4.197v-9.233
		c0-2.518-1.679-4.197-4.197-4.197H339.079z"/>
	<path d="M410.424,301.164h-83.934c-2.518,0-5.875-1.679-7.554-4.197s-1.679-5.875,0-8.393L335.722,255
		c1.679-2.518,4.197-5.036,7.554-5.036h50.361c3.357,0,5.875,1.679,7.554,5.036l16.787,33.574c1.679,2.518,0.839,5.875,0,8.393
		S412.942,301.164,410.424,301.164z M339.919,284.377h57.075l-8.393-16.787h-40.289L339.919,284.377z"/>
	<path d="M393.637,267.59h-50.361c-5.036,0-8.393-3.357-8.393-8.393v-50.361c0-5.036,3.357-8.393,8.393-8.393h50.361
		c5.036,0,8.393,3.357,8.393,8.393v50.361C402.03,264.233,398.673,267.59,393.637,267.59z M351.669,250.803h33.574v-33.574h-33.574
		V250.803z"/>
	<path d="M393.637,217.229h-50.361c-5.036,0-8.393-3.357-8.393-8.393c0-34.413,5.036-67.987,15.108-100.721l10.072-36.092
		c1.679-3.357,5.036-5.875,8.393-5.875s6.715,2.518,8.393,5.875l10.911,36.092c10.072,32.734,15.108,67.148,15.108,100.721
		C402.03,213.872,398.673,217.229,393.637,217.229z M351.669,200.443h33.574c-0.839-29.377-5.036-59.593-14.269-88.131l-2.518-8.393
		l-2.518,9.233C357.545,141.689,352.509,171.066,351.669,200.443z"/>
</g>
<g>
</g>
<g>
</g>
<g>
</g>
<g>
</g>
<g>
</g>
<g>
</g>
<g>
</g>
<g>
</g>
<g>
</g>
<g>
</g>
<g>
</g>
<g>
</g>
<g>
</g>
<g>
</g>
<g>
</g>
</svg>
