<svg xmlns="http://www.w3.org/2000/svg" viewBox="0 0 512 1024" fill="none">
  <defs>
    <linearGradient id="emberHull" x1="256" y1="58" x2="256" y2="894" gradientUnits="userSpaceOnUse">
      <stop offset="0" stop-color="#fff3dd"/>
      <stop offset="0.42" stop-color="#ffad6b"/>
      <stop offset="1" stop-color="#62273c"/>
    </linearGradient>
    <linearGradient id="emberCore" x1="256" y1="178" x2="256" y2="788" gradientUnits="userSpaceOnUse">
      <stop offset="0" stop-color="#ffe28b"/>
      <stop offset="0.45" stop-color="#ff6f5d"/>
      <stop offset="1" stop-color="#4f2ca0"/>
    </linearGradient>
    <radialGradient id="emberGlass" cx="0" cy="0" r="1" gradientTransform="translate(256 356) rotate(90) scale(104 78)" gradientUnits="userSpaceOnUse">
      <stop offset="0" stop-color="#fff9ef"/>
      <stop offset="0.55" stop-color="#ffd4b0"/>
      <stop offset="1" stop-color="#8f4b7d"/>
    </radialGradient>
  </defs>
  <g stroke="#2a1018" stroke-linejoin="round">
    <path d="M182 706 104 924l80-34 60-134-62-50Z" fill="#4e2435" stroke-width="16"/>
    <path d="m330 706 78 218-80-34-60-134 62-50Z" fill="#4e2435" stroke-width="16"/>
    <path d="M256 58c-78 62-136 182-136 330v182l70 116h132l70-116V388C392 240 334 120 256 58Z" fill="url(#emberHull)" stroke-width="18"/>
    <path d="M256 112c-42 34-86 106-98 202l98-34 98 34c-12-96-56-168-98-202Z" fill="#ffe9c8" stroke-width="12"/>
    <path d="m176 390 80-112 80 112-80 166-80-166Z" fill="url(#emberCore)" stroke-width="14"/>
    <ellipse cx="256" cy="356" rx="72" ry="96" fill="url(#emberGlass)" stroke-width="16"/>
    <path d="M230 284c14-16 28-28 48-40" stroke="#fff8e8" stroke-linecap="round" stroke-width="14"/>
    <path d="M212 686h88v156h-88z" fill="#5f2a43" stroke-width="14"/>
    <path d="M188 842h136l30 58H158l30-58Z" fill="#e56c5d" stroke-width="14"/>
    <path d="M126 488 62 582l112 12 26-82-74-24ZM386 488l64 94-112 12-26-82 74-24Z" fill="#ffb35c" stroke-width="12"/>
    <path d="M256 430v218" stroke="#5f2a43" stroke-linecap="round" stroke-width="18"/>
    <circle cx="222" cy="908" r="22" fill="#ffe08c" stroke-width="12"/>
    <circle cx="290" cy="908" r="22" fill="#ff8d63" stroke-width="12"/>
  </g>
</svg>
